<?xml version="1.0" encoding="UTF-8"?>
<svg width="120px" height="120px" viewBox="0 0 120 120" version="1.1" xmlns="http://www.w3.org/2000/svg" xmlns:xlink="http://www.w3.org/1999/xlink">
    <title>logo</title>
    <defs>
        <linearGradient x1="19.3583029%" y1="10.7129515%" x2="73.1411545%" y2="89.4260786%" id="linearGradient-1">
            <stop stop-color="#F3A842" offset="0%"></stop>
            <stop stop-color="#F7C116" offset="19.2812604%"></stop>
            <stop stop-color="#D2225E" offset="49.4675745%"></stop>
            <stop stop-color="#8C2987" offset="78.0795925%"></stop>
            <stop stop-color="#6C2F89" offset="100%"></stop>
            <stop stop-color="#65318A" offset="100%"></stop>
        </linearGradient>
    </defs>
    <g id="logo" stroke="none" stroke-width="1" fill="none" fill-rule="evenodd">
        <path d="M21.1876574,15 C20.6783162,15 20.2417582,15.4454047 20.2417582,15.9642738 L20.2417582,15.9642738 L20.2417582,50.0849306 C20.2417582,50.9750184 20.9694492,51.7912088 21.91549,51.7912088 L21.91549,51.7912088 L27.3008849,51.7912088 C28.1741424,51.7912088 28.9747583,50.9750184 28.9747583,50.0849306 L28.9747583,50.0849306 L28.9747583,25.8300026 C28.9747583,24.4946545 29.9934407,23.382153 31.3035394,23.382153 L31.3035394,23.382153 L32.9160992,23.382153 C34.2259147,23.382153 35.245022,24.4946545 35.245022,25.8300026 L35.245022,25.8300026 L35.245022,50.0849306 C35.245022,50.9750184 36.0456378,51.7912088 36.9187537,51.7912088 L36.9187537,51.7912088 L42.3042902,51.7912088 C43.2501894,51.7912088 43.978022,50.9750184 43.978022,50.0849306 L43.978022,50.0849306 L43.978022,25.3107006 C43.978022,19.5990996 39.4658846,15 33.8622816,15 L33.8622816,15 L21.1876574,15 Z M63.7940544,15 L54.763202,15 L49.2695994,15 C48.2911302,15 47.5384615,15.7447574 47.5384615,16.7127972 L47.5384615,16.7127972 L47.5384615,21.7019474 C47.5384615,22.670132 48.2911302,23.4148894 49.2695994,23.4148894 L49.2695994,23.4148894 L54.763202,23.4148894 L54.763202,51.9866237 C54.763202,56.9912776 58.3755722,61.1433727 63.1472572,62.1190918 L63.1472572,62.1190918 L63.1472572,89.894921 C63.1472572,90.788485 63.8999259,91.6077181 64.8782487,91.6077181 L64.8782487,91.6077181 L70.4472646,91.6077181 C71.3503205,91.6077181 72.1784025,90.788485 72.1784025,89.894921 L72.1784025,89.894921 L72.1784025,64.7251632 C72.1784025,63.3845998 73.2318457,62.2677535 74.5866493,62.2677535 L74.5866493,62.2677535 L75.2639046,62.2677535 C76.6184153,62.2677535 77.672005,63.3845998 77.672005,64.7251632 L77.672005,64.7251632 L77.672005,103.485005 C77.672005,104.378569 78.500087,105.197802 79.4031429,105.197802 L79.4031429,105.197802 L84.9721588,105.197802 C85.950628,105.197802 86.7032967,104.378569 86.7032967,103.485005 L86.7032967,103.485005 L86.7032967,64.203833 C86.7032967,58.4699254 82.0370439,53.8528641 76.2422275,53.8528641 L76.2422275,53.8528641 L65.7200954,53.8528641 C64.6278472,53.5965458 63.7940544,52.6160452 63.7940544,51.4655833 L63.7940544,51.4655833 L63.7940544,23.4148894 L67.6322252,23.4148894 C68.610548,23.4148894 69.3632167,22.670132 69.3632167,21.7019474 L69.3632167,21.7019474 L69.3632167,16.7127972 C69.3632167,15.7447574 68.610548,15 67.6322252,15 L67.6322252,15 L63.7940544,15 Z M7.74409835,39.9230769 C6.75828439,39.9230769 6,40.669165 6,41.6387892 L6,41.6387892 L6,90.4269997 C6,91.396769 6.75828439,92.1428571 7.74409835,92.1428571 L7.74409835,92.1428571 L13.3559045,92.1428571 C14.2658753,92.1428571 15.1001504,91.396769 15.1001504,90.4269997 L15.1001504,90.4269997 L15.1001504,79.6846374 C15.1001504,78.3419691 16.16166,77.2226918 17.6028282,77.2226918 L17.6028282,77.2226918 L18.2094262,77.2226918 C19.5741611,77.2226918 20.7119565,78.3419691 20.7119565,79.6846374 L20.7119565,79.6846374 L20.7119565,90.4269997 C20.7119565,91.396769 21.4703885,92.1428571 22.3802117,92.1428571 L22.3802117,92.1428571 L27.9920178,92.1428571 C28.9779794,92.1428571 29.7362637,91.396769 29.7362637,90.4269997 L29.7362637,90.4269997 L29.7362637,79.1623757 C29.7362637,76.9245469 29.0535274,74.9102542 27.8400363,73.1942516 L27.8400363,73.1942516 C29.0535274,71.4788295 29.7362637,69.4645368 29.7362637,67.2264177 L29.7362637,67.2264177 L29.7362637,56.1111565 C29.7362637,55.1413872 28.9779794,54.3952991 27.9920178,54.3952991 L27.9920178,54.3952991 L22.3802117,54.3952991 C21.4703885,54.3952991 20.7119565,55.1413872 20.7119565,56.1111565 L20.7119565,56.1111565 L20.7119565,66.7044463 C20.7119565,68.0471146 19.5741611,69.1659564 18.2094262,69.1659564 L18.2094262,69.1659564 L17.6028282,69.1659564 C16.16166,69.1659564 15.1001504,68.0471146 15.1001504,66.7044463 L15.1001504,66.7044463 L15.1001504,41.6387892 C15.1001504,40.669165 14.2658753,39.9230769 13.3559045,39.9230769 L13.3559045,39.9230769 L7.74409835,39.9230769 Z M105.4453,41.1098901 C99.7177548,41.1098901 95.1056999,45.7162436 95.1056999,51.4373919 L95.1056999,51.4373919 L95.1056999,55.8213936 L89.6011946,55.8213936 C88.6340598,55.8213936 87.8901099,56.6385146 87.8901099,57.5303793 L87.8901099,57.5303793 L87.8901099,62.5825929 C87.8901099,63.4744577 88.6340598,64.2915787 89.6011946,64.2915787 L89.6011946,64.2915787 L95.1056999,64.2915787 L95.1056999,95.1811241 C95.1056999,96.1471543 95.8496497,96.8901099 96.8167845,96.8901099 L96.8167845,96.8901099 L102.32129,96.8901099 C103.213885,96.8901099 104.03194,96.1471543 104.03194,95.1811241 L104.03194,95.1811241 L104.03194,64.2915787 L107.825506,64.2915787 C108.71839,64.2915787 109.46234,63.4744577 109.46234,62.5825929 L109.46234,62.5825929 L109.46234,57.5303793 C109.46234,56.6385146 108.71839,55.8213936 107.825506,55.8213936 L107.825506,55.8213936 L104.03194,55.8213936 L104.03194,51.9577065 C104.03194,50.6202708 105.07347,49.5056206 106.412146,49.5056206 L106.412146,49.5056206 L112.28906,49.5056206 C113.25605,49.5056206 114,48.7628096 114,47.796924 L114,47.796924 L114,42.8187313 C114,41.8528457 113.25605,41.1098901 112.28906,41.1098901 L112.28906,41.1098901 L105.4453,41.1098901 Z M43.8798857,54.1648352 C38.0592236,54.1648352 33.2967033,58.8183853 33.2967033,64.5976082 L33.2967033,64.5976082 L33.2967033,81.709938 C33.2967033,87.489307 38.0592236,92.1428571 43.8798857,92.1428571 L43.8798857,92.1428571 L46.4499317,92.1428571 C52.2705938,92.1428571 57.032967,87.489307 57.032967,81.709938 L57.032967,81.709938 L57.032967,64.5976082 C57.032967,58.8183853 52.2705938,54.1648352 46.4499317,54.1648352 L46.4499317,54.1648352 L43.8798857,54.1648352 Z M41.6043956,81.3175559 L41.6043956,64.989988 C41.6043956,63.6168007 42.8070929,62.4725275 44.2505481,62.4725275 L44.2505481,62.4725275 L44.892153,62.4725275 C46.3354522,62.4725275 47.5384615,63.6168007 47.5384615,64.989988 L47.5384615,64.989988 L47.5384615,81.3175559 C47.5384615,82.7671963 46.3354522,83.8351648 44.892153,83.8351648 L44.892153,83.8351648 L44.2505481,83.8351648 C42.8070929,83.8351648 41.6043956,82.7671963 41.6043956,81.3175559 L41.6043956,81.3175559 Z" fill="url(#linearGradient-1)"></path>
    </g>
</svg>